# File produced by Open Asset Import Library (http://www.assimp.sf.net)
# (assimp v3.0.1262)

mtllib 1000_bit.stl.obj.mtl

# 42 vertex positions
v  177.855 71.2107 40
v  107.145 71.2107 40
v  142.5 35.8553 90
v  107.145 71.2107 40
v  107.145 0.5 40
v  142.5 35.8553 90
v  107.145 0.5 40
v  177.855 0.5 40
v  142.5 35.8553 90
v  177.855 0.5 40
v  177.855 71.2107 40
v  142.5 35.8553 90
v  115.63 35.8553 0
v  142.5 62.7254 0
v  142.5 8.98528 0
v  142.5 8.98528 0
v  142.5 62.7254 0
v  169.37 35.8553 0
v  169.37 35.8553 0
v  142.5 62.7254 0
v  177.855 71.2107 40
v  107.145 71.2107 40
v  142.5 62.7254 0
v  115.63 35.8553 0
v  107.145 0.5 40
v  107.145 71.2107 40
v  115.63 35.8553 0
v  142.5 8.98528 0
v  107.145 0.5 40
v  115.63 35.8553 0
v  142.5 8.98528 0
v  177.855 0.5 40
v  107.145 0.5 40
v  142.5 8.98528 0
v  169.37 35.8553 0
v  177.855 0.5 40
v  169.37 35.8553 0
v  177.855 71.2107 40
v  177.855 0.5 40
v  142.5 62.7254 0
v  107.145 71.2107 40
v  177.855 71.2107 40

# 0 UV coordinates

# 42 vertex normals
vn -8.20464e-16 0.816497 0.57735
vn -8.20464e-16 0.816497 0.57735
vn -8.20464e-16 0.816497 0.57735
vn -0.816497 3.28186e-16 0.57735
vn -0.816497 3.28186e-16 0.57735
vn -0.816497 3.28186e-16 0.57735
vn -2.05116e-16 -0.816497 0.57735
vn -2.05116e-16 -0.816497 0.57735
vn -2.05116e-16 -0.816497 0.57735
vn 0.816497 -0 0.57735
vn 0.816497 -0 0.57735
vn 0.816497 -0 0.57735
vn 0 0 -1
vn 0 0 -1
vn 0 0 -1
vn 0 0 -1
vn 0 0 -1
vn 0 0 -1
vn 0.558908 0.558908 -0.612572
vn 0.558908 0.558908 -0.612572
vn 0.558908 0.558908 -0.612572
vn -0.558908 0.558908 -0.612572
vn -0.558908 0.558908 -0.612572
vn -0.558908 0.558908 -0.612572
vn -0.978232 3.93194e-16 -0.207514
vn -0.978232 3.93194e-16 -0.207514
vn -0.978232 3.93194e-16 -0.207514
vn -0.558908 -0.558908 -0.612572
vn -0.558908 -0.558908 -0.612572
vn -0.558908 -0.558908 -0.612572
vn -2.35916e-16 -0.978232 -0.207514
vn -2.35916e-16 -0.978232 -0.207514
vn -2.35916e-16 -0.978232 -0.207514
vn 0.558908 -0.558908 -0.612572
vn 0.558908 -0.558908 -0.612572
vn 0.558908 -0.558908 -0.612572
vn 0.978232 0 -0.207514
vn 0.978232 0 -0.207514
vn 0.978232 0 -0.207514
vn -9.82985e-16 0.978232 -0.207514
vn -9.82985e-16 0.978232 -0.207514
vn -9.82985e-16 0.978232 -0.207514

# Mesh '<STL_BINARY>' with 14 faces
g <STL_BINARY>
usemtl DefaultMaterial
f  1//1 2//2 3//3
f  4//4 5//5 6//6
f  7//7 8//8 9//9
f  10//10 11//11 12//12
f  13//13 14//14 15//15
f  16//16 17//17 18//18
f  19//19 20//20 21//21
f  22//22 23//23 24//24
f  25//25 26//26 27//27
f  28//28 29//29 30//30
f  31//31 32//32 33//33
f  34//34 35//35 36//36
f  37//37 38//38 39//39
f  40//40 41//41 42//42

